<svg version="1.1" id="Layer_1" xmlns="http://www.w3.org/2000/svg" xmlns:xlink="http://www.w3.org/1999/xlink" x="0px" y="0px"
	 width="100%" viewBox="0 0 836 836" enable-background="new 0 0 836 836" xml:space="preserve">
<path fill="none" opacity="1.000000" stroke="none" 
	d="
M395.000000,837.000000 
	C263.333374,837.000000 132.166748,837.000000 1.000088,837.000000 
	C1.000059,558.333435 1.000059,279.666901 1.000029,1.000275 
	C279.666473,1.000183 558.332947,1.000183 836.999512,1.000092 
	C836.999695,279.666382 836.999695,558.332764 836.999878,836.999573 
	C689.833313,837.000000 542.666687,837.000000 395.000000,837.000000 
M730.687256,546.198547 
	C733.755920,544.260925 736.917175,542.454468 739.878174,540.364380 
	C758.933167,526.914001 770.877991,508.053650 780.074829,487.154907 
	C790.040527,464.509277 795.288879,440.545563 800.019165,416.401459 
	C801.413513,409.284180 799.980652,403.610504 796.524597,397.247009 
	C791.050415,387.167480 786.632446,376.417847 782.748596,365.599579 
	C779.210510,355.744232 777.089722,345.034698 779.496887,334.826813 
	C781.525208,326.225616 779.700745,320.120117 773.742859,314.449799 
	C772.784485,313.537720 771.989197,312.454102 771.120178,311.448395 
	C742.548157,278.386078 706.851746,260.657623 662.721619,260.868713 
	C659.862671,260.882416 658.825867,262.058777 657.484497,264.236481 
	C649.148560,277.770203 644.967896,292.153900 646.853394,308.211761 
	C647.528931,313.965240 646.963013,319.864563 646.963440,325.697296 
	C646.963684,329.257111 646.963501,332.816956 646.963501,335.266327 
	C643.800232,332.605774 640.313171,329.841217 637.038940,326.844269 
	C635.520081,325.454010 633.993042,323.794525 633.191223,321.944397 
	C628.127014,310.259003 619.325012,302.104156 608.318665,296.481445 
	C594.350586,289.345612 579.277710,285.888885 563.613831,284.911896 
	C561.791504,284.798248 559.901611,283.850250 558.283447,282.885803 
	C556.448181,281.791901 555.071228,279.818726 553.164307,278.976776 
	C548.343689,276.848358 543.203125,275.427490 538.437378,273.196198 
	C531.090576,269.756500 524.631165,268.607666 517.278076,274.290741 
	C513.583862,277.145966 512.075928,279.664856 512.018921,283.743378 
	C511.954041,288.383759 512.003906,293.025726 512.003906,297.667023 
	C510.016327,295.706360 508.660187,293.647522 508.507477,291.502960 
	C507.810181,281.711334 501.097748,279.159210 492.994476,277.383179 
	C475.017059,273.443024 460.005402,279.409424 457.110229,298.374268 
	C455.621979,308.122803 456.123505,318.168427 455.597931,328.073029 
	C455.275513,334.149017 455.094360,340.273651 454.134033,346.261658 
	C453.362091,351.075195 450.511017,355.678925 450.333862,360.440918 
	C449.807709,374.586548 450.019348,388.766724 450.286499,402.926941 
	C450.325623,405.001007 451.724152,407.790924 453.394012,408.931671 
	C456.459412,411.025848 456.229919,413.032928 454.639648,415.557709 
	C451.517731,420.514343 449.526428,425.884399 449.102112,431.707367 
	C447.596313,452.370728 439.731201,470.765198 429.255615,488.270264 
	C427.668427,490.922516 426.239624,491.483978 423.384613,489.525848 
	C410.675446,480.808868 406.619385,463.239136 414.298248,449.901520 
	C415.389923,448.005371 415.853333,445.535126 415.935303,443.305847 
	C416.344513,432.173859 416.453278,421.031158 416.817688,409.897125 
	C417.098755,401.310516 417.828003,392.733307 417.909088,384.147675 
	C417.948792,379.947968 415.761353,375.442474 416.706268,371.597443 
	C418.481110,364.375092 421.937866,357.580658 424.418579,350.511200 
	C425.743286,346.736206 427.340973,342.761627 427.354980,338.871887 
	C427.424438,319.610779 426.418579,300.313751 431.663086,281.436493 
	C432.634216,277.940918 432.275024,274.598694 429.324615,271.826233 
	C428.033539,270.613068 426.984009,268.944214 426.342285,267.282440 
	C425.208679,264.346893 423.300873,263.740112 420.293854,263.659637 
	C408.269226,263.337830 396.061157,265.368591 384.367645,260.259949 
	C381.280945,258.911469 377.305634,259.229034 374.972565,263.271515 
	C373.843048,265.228546 372.050446,267.025238 370.149902,268.272797 
	C364.617584,271.904358 364.661499,277.265747 365.073730,282.847137 
	C365.377075,286.954132 365.805206,291.055450 365.977753,295.167664 
	C366.200928,300.485870 366.334595,305.812988 366.305939,311.135223 
	C366.272797,317.286743 366.443726,323.483490 365.774597,329.578094 
	C364.462860,341.526184 364.945404,353.173615 367.554077,365.013519 
	C368.962708,371.406982 368.308075,378.564575 367.194122,385.142029 
	C364.609253,400.405212 359.788116,415.398407 358.389709,430.730560 
	C355.684082,460.394714 360.366119,489.196289 374.094238,516.020081 
	C382.246216,531.948547 390.627533,547.346436 409.402893,554.039490 
	C432.452942,562.256531 453.737915,561.970276 471.610474,543.620361 
	C479.138214,535.891602 485.114655,526.488464 490.939270,517.302979 
	C499.442780,503.892822 503.808502,489.282013 502.169647,473.017365 
	C501.494812,466.320435 500.346863,459.023621 505.613007,453.093750 
	C505.983246,452.676819 505.983337,451.840912 505.984253,451.199554 
	C506.004028,437.534302 506.089905,423.867859 505.917328,410.204773 
	C505.885529,407.686401 503.512024,404.475555 504.433777,402.809509 
	C506.728638,398.661804 504.886627,395.170044 504.336273,391.390808 
	C504.099609,389.765808 504.025513,388.083954 504.141113,386.446503 
	C504.713043,378.343414 505.860107,370.247803 505.881561,362.147156 
	C505.909729,351.499023 506.030151,340.968231 509.453400,330.727997 
	C510.248474,328.349548 510.479614,325.782562 510.970245,323.302368 
	C513.346802,334.338135 512.801575,345.119904 510.192535,355.837646 
	C509.662140,358.016449 509.371216,360.371796 509.573425,362.590759 
	C510.605988,373.923309 512.139709,385.217896 512.883301,396.566040 
	C513.326050,403.322601 511.426819,410.306000 516.083618,416.418121 
	C516.722778,417.257019 516.375916,418.905365 516.356750,420.176971 
	C516.293945,424.335236 515.693481,428.546631 516.155579,432.640961 
	C518.086365,449.747070 516.868774,466.569031 513.534546,483.451447 
	C510.673096,497.939972 509.721191,512.662109 514.081787,527.174622 
	C517.492310,538.525513 524.816528,546.213928 535.734680,550.815186 
	C545.180054,554.795654 553.227966,552.747803 560.994446,546.591614 
	C565.011292,543.407654 568.470947,532.027893 566.677734,527.038940 
	C565.670898,524.237793 564.380310,519.936523 565.701172,518.197571 
	C569.860413,512.721619 568.113403,507.950989 565.893250,502.792206 
	C565.246033,501.288422 564.796204,499.689117 564.367920,498.103363 
	C561.145264,486.171234 563.870544,475.329987 569.988586,464.975403 
	C572.145630,466.249969 573.780151,467.407135 575.567993,468.231842 
	C579.134033,469.876831 580.532104,472.273499 580.142029,476.395782 
	C579.808594,479.919800 580.119751,483.744781 581.176270,487.113434 
	C583.894653,495.781036 584.638123,504.545380 584.057312,513.530457 
	C583.820435,517.194824 583.078064,520.768127 585.802673,524.304199 
	C587.125488,526.020935 586.397217,529.316833 586.601379,531.897461 
	C586.747803,533.748535 586.251343,536.037170 587.156311,537.378662 
	C593.001221,546.042725 595.938049,555.407349 595.285339,565.896545 
	C595.219604,566.952515 595.795105,568.549500 596.605347,569.075745 
	C601.124023,572.010071 605.627075,575.073853 610.481934,577.356628 
	C615.739868,579.828918 620.479614,578.994019 625.436340,574.978638 
	C631.857605,569.776794 639.317810,565.857422 647.050171,560.927246 
	C645.805969,556.476318 643.952087,550.837891 642.690613,545.069946 
	C641.252014,538.491821 637.522339,532.302856 640.068726,525.013489 
	C644.681030,511.810822 646.919495,498.131073 645.942383,484.135132 
	C644.853516,468.539673 638.089722,456.342224 623.548828,449.248901 
	C622.248596,448.614594 620.651550,448.087097 619.850647,447.017181 
	C616.225830,442.175293 612.837585,437.156281 609.272888,432.070801 
	C623.615540,416.064087 637.112366,399.123474 646.489197,379.201538 
	C647.093201,380.452606 647.383606,381.432770 647.344971,382.399811 
	C646.046265,414.977966 648.011719,447.438110 650.347290,479.915070 
	C651.333313,493.626923 650.771179,507.447235 651.051697,521.215393 
	C651.101074,523.640259 651.453491,526.201416 652.327881,528.441284 
	C655.375061,536.247009 658.853638,543.885010 661.869141,551.702209 
	C663.031067,554.714294 664.409546,556.164917 667.903809,556.118652 
	C672.852295,556.053101 677.805115,556.904541 682.766357,557.093140 
	C699.431824,557.726807 715.214294,554.244141 730.687256,546.198547 
M285.777649,262.293182 
	C284.114838,261.902588 282.445038,261.158173 280.790619,261.190948 
	C276.655609,261.272858 272.487244,262.213379 268.405823,261.887604 
	C261.477539,261.334503 254.731781,260.681488 248.841400,265.495239 
	C248.284470,265.950378 247.206131,265.702454 246.480789,266.028076 
	C243.701614,267.275696 240.317551,267.995667 238.333679,270.047913 
	C231.189514,277.438171 224.047928,284.922943 217.771469,293.041626 
	C202.900375,312.277527 192.839172,333.899109 189.148315,358.020599 
	C187.479141,368.929504 187.500763,380.096191 186.727112,391.143982 
	C186.600784,392.947845 186.989075,395.341949 186.001328,396.429535 
	C182.776443,399.980133 183.328415,404.115540 183.297562,408.208038 
	C183.174606,424.514740 182.439621,440.856964 183.306351,457.112701 
	C183.693390,464.371826 180.481384,472.720123 187.046906,479.112732 
	C187.391647,479.448364 187.228836,480.412872 187.145233,481.064453 
	C186.208832,488.363312 188.476593,494.920929 191.033356,501.657593 
	C193.583237,508.376129 194.969421,515.463806 203.140579,517.850647 
	C203.973953,518.094055 204.637741,519.144348 205.235474,519.930359 
	C208.430939,524.132324 211.293228,528.626953 214.804535,532.541504 
	C222.548721,541.175049 230.506226,549.626953 238.664520,557.868103 
	C239.826202,559.041565 242.724899,559.229614 244.591248,558.823669 
	C248.919632,557.882080 253.025650,555.827515 257.369415,555.064941 
	C269.238312,552.981201 280.350494,549.306152 289.793579,541.534607 
	C307.751221,526.755676 314.823181,506.219482 318.801178,484.506531 
	C321.270020,471.030945 321.700806,457.191833 323.442383,443.566528 
	C323.902252,439.968842 325.418701,436.337738 327.156952,433.101776 
	C333.892914,420.562073 335.358124,407.803375 327.231323,395.671295 
	C320.944763,386.286407 322.866241,377.026855 325.495544,367.640381 
	C328.634064,356.435913 332.299011,345.547913 325.908539,334.175262 
	C318.972534,321.831726 314.517548,308.591461 312.866058,294.449768 
	C312.384369,290.324951 310.566315,287.208893 307.133057,284.191895 
	C299.683655,277.645660 293.116028,270.095978 285.777649,262.293182 
M37.996967,404.912170 
	C38.297295,413.187531 37.684311,421.622437 39.095898,429.703674 
	C41.704311,444.636658 43.916332,459.529907 42.732647,474.688599 
	C42.391415,479.058441 41.835285,482.743286 46.063747,483.040833 
	C47.062057,488.160858 47.555096,492.664948 48.848282,496.926239 
	C51.896786,506.971588 56.744942,516.707336 58.143654,526.940308 
	C59.220181,534.816162 62.847073,539.071594 68.627319,542.858398 
	C71.254425,544.579468 73.855843,546.360168 76.597214,547.882751 
	C85.927055,553.064819 95.917221,557.239502 106.565552,556.725281 
	C116.974464,556.222595 127.277855,553.535156 137.955566,551.751953 
	C138.963745,548.869385 140.250732,545.189758 141.594147,541.348755 
	C146.292328,542.286072 148.654846,539.638672 150.558472,536.314697 
	C155.653458,527.417969 160.958115,518.630615 165.741364,509.568634 
	C172.103394,497.515533 175.973557,484.581451 177.846100,471.085785 
	C178.592896,465.703461 179.647400,460.243134 179.388306,454.874939 
	C179.113068,449.171692 176.655197,443.545471 176.584549,437.867767 
	C176.493301,430.535736 173.451523,424.387634 170.793213,418.013733 
	C168.778015,413.181854 165.575729,409.770477 159.666626,409.865417 
	C156.895187,409.909912 154.119141,409.075836 151.331039,408.767853 
	C133.311264,406.777374 115.623642,408.034393 98.322891,413.860809 
	C95.528748,414.801788 94.701790,416.078339 94.955841,418.797760 
	C95.580383,425.483002 96.091354,432.179932 96.564354,438.878021 
	C97.218964,448.148071 102.766335,454.171875 112.206215,456.082397 
	C115.735397,456.796661 119.282074,457.708771 122.616455,459.041748 
	C129.451279,461.774078 132.015381,465.992218 132.026611,473.176270 
	C132.040695,482.177521 127.426933,489.356537 122.503944,496.163269 
	C115.372482,506.023468 117.744865,507.511322 105.109871,498.518890 
	C94.557739,491.008850 90.697258,480.655212 93.752457,467.627563 
	C94.915543,462.668060 97.364998,457.789429 93.952415,452.000702 
	C86.346153,439.098297 84.315834,424.413635 84.264679,409.756012 
	C84.224983,398.380707 85.991951,386.995209 87.074959,375.625580 
	C87.191872,374.398193 88.070290,373.230713 88.648956,372.061890 
	C93.797935,361.661835 95.982712,350.635254 93.754639,339.267853 
	C92.876915,334.789825 93.063026,330.970123 94.385475,326.796631 
	C95.408203,323.569000 97.194946,322.513519 100.304604,323.364685 
	C118.443764,328.329803 127.990250,341.996368 123.222717,361.394836 
	C121.697983,367.598785 128.048981,378.191223 133.710602,377.761810 
	C143.729172,377.001923 153.239899,374.324097 161.319092,367.855591 
	C172.970230,358.527130 176.326004,345.804901 176.290405,331.656219 
	C176.282104,328.349701 176.866882,324.848511 172.226852,323.832550 
	C171.627090,323.701263 170.994476,322.014557 171.015472,321.062439 
	C171.088531,317.750671 171.585510,314.447479 171.639816,311.136383 
	C171.676392,308.905060 171.959122,306.200470 170.873581,304.520599 
	C168.003433,300.078918 164.573563,295.973694 161.140289,291.926422 
	C154.163422,283.701782 147.109283,275.539001 139.899918,267.518890 
	C138.743256,266.232117 136.675705,265.269958 134.931488,265.086365 
	C124.155495,263.951935 113.351517,263.083435 102.999931,262.165833 
	C100.860741,263.162415 98.804947,264.307648 96.621689,265.103088 
	C89.222855,267.798676 81.457268,269.713531 74.432259,273.153046 
	C65.306793,277.620941 58.012375,284.094238 53.909481,294.172974 
	C49.812912,304.236145 44.167725,313.667328 39.249313,323.399719 
	C38.676819,324.532532 38.078362,325.813232 38.056255,327.035583 
	C37.953819,332.699615 37.500866,338.434235 38.181709,344.020691 
	C40.031570,359.199219 39.182018,374.166565 36.070415,389.078552 
	C35.165413,393.415619 32.851032,398.009338 37.876694,401.593140 
	C38.285519,401.884705 37.973915,403.186493 37.996967,404.912170 
z"/>
<path fill="#FCFCFC" opacity="1.000000" stroke="none" 
	d="
M730.375427,546.406616 
	C715.214294,554.244141 699.431824,557.726807 682.766357,557.093140 
	C677.805115,556.904541 672.852295,556.053101 667.903809,556.118652 
	C664.409546,556.164917 663.031067,554.714294 661.869141,551.702209 
	C658.853638,543.885010 655.375061,536.247009 652.327881,528.441284 
	C651.453491,526.201416 651.101074,523.640259 651.051697,521.215393 
	C650.771179,507.447235 651.333313,493.626923 650.347290,479.915070 
	C648.011719,447.438110 646.046265,414.977966 647.344971,382.399811 
	C647.383606,381.432770 647.093201,380.452606 646.489197,379.201538 
	C637.112366,399.123474 623.615540,416.064087 609.272888,432.070801 
	C612.837585,437.156281 616.225830,442.175293 619.850647,447.017181 
	C620.651550,448.087097 622.248596,448.614594 623.548828,449.248901 
	C638.089722,456.342224 644.853516,468.539673 645.942383,484.135132 
	C646.919495,498.131073 644.681030,511.810822 640.068726,525.013489 
	C637.522339,532.302856 641.252014,538.491821 642.690613,545.069946 
	C643.952087,550.837891 645.805969,556.476318 647.050171,560.927246 
	C639.317810,565.857422 631.857605,569.776794 625.436340,574.978638 
	C620.479614,578.994019 615.739868,579.828918 610.481934,577.356628 
	C605.627075,575.073853 601.124023,572.010071 596.605347,569.075745 
	C595.795105,568.549500 595.219604,566.952515 595.285339,565.896545 
	C595.938049,555.407349 593.001221,546.042725 587.156311,537.378662 
	C586.251343,536.037170 586.747803,533.748535 586.601379,531.897461 
	C586.397217,529.316833 587.125488,526.020935 585.802673,524.304199 
	C583.078064,520.768127 583.820435,517.194824 584.057312,513.530457 
	C584.638123,504.545380 583.894653,495.781036 581.176270,487.113434 
	C580.119751,483.744781 579.808594,479.919800 580.142029,476.395782 
	C580.532104,472.273499 579.134033,469.876831 575.567993,468.231842 
	C573.780151,467.407135 572.145630,466.249969 569.988586,464.975403 
	C563.870544,475.329987 561.145264,486.171234 564.367920,498.103363 
	C564.796204,499.689117 565.246033,501.288422 565.893250,502.792206 
	C568.113403,507.950989 569.860413,512.721619 565.701172,518.197571 
	C564.380310,519.936523 565.670898,524.237793 566.677734,527.038940 
	C568.470947,532.027893 565.011292,543.407654 560.994446,546.591614 
	C553.227966,552.747803 545.180054,554.795654 535.734680,550.815186 
	C524.816528,546.213928 517.492310,538.525513 514.081787,527.174622 
	C509.721191,512.662109 510.673096,497.939972 513.534546,483.451447 
	C516.868774,466.569031 518.086365,449.747070 516.155579,432.640961 
	C515.693481,428.546631 516.293945,424.335236 516.356750,420.176971 
	C516.375916,418.905365 516.722778,417.257019 516.083618,416.418121 
	C511.426819,410.306000 513.326050,403.322601 512.883301,396.566040 
	C512.139709,385.217896 510.605988,373.923309 509.573425,362.590759 
	C509.371216,360.371796 509.662140,358.016449 510.192535,355.837646 
	C512.801575,345.119904 513.346802,334.338135 510.970245,323.302368 
	C510.479614,325.782562 510.248474,328.349548 509.453400,330.727997 
	C506.030151,340.968231 505.909729,351.499023 505.881561,362.147156 
	C505.860107,370.247803 504.713043,378.343414 504.141113,386.446503 
	C504.025513,388.083954 504.099609,389.765808 504.336273,391.390808 
	C504.886627,395.170044 506.728638,398.661804 504.433777,402.809509 
	C503.512024,404.475555 505.885529,407.686401 505.917328,410.204773 
	C506.089905,423.867859 506.004028,437.534302 505.984253,451.199554 
	C505.983337,451.840912 505.983246,452.676819 505.613007,453.093750 
	C500.346863,459.023621 501.494812,466.320435 502.169647,473.017365 
	C503.808502,489.282013 499.442780,503.892822 490.939270,517.302979 
	C485.114655,526.488464 479.138214,535.891602 471.610474,543.620361 
	C453.737915,561.970276 432.452942,562.256531 409.402893,554.039490 
	C390.627533,547.346436 382.246216,531.948547 374.094238,516.020081 
	C360.366119,489.196289 355.684082,460.394714 358.389709,430.730560 
	C359.788116,415.398407 364.609253,400.405212 367.194122,385.142029 
	C368.308075,378.564575 368.962708,371.406982 367.554077,365.013519 
	C364.945404,353.173615 364.462860,341.526184 365.774597,329.578094 
	C366.443726,323.483490 366.272797,317.286743 366.305939,311.135223 
	C366.334595,305.812988 366.200928,300.485870 365.977753,295.167664 
	C365.805206,291.055450 365.377075,286.954132 365.073730,282.847137 
	C364.661499,277.265747 364.617584,271.904358 370.149902,268.272797 
	C372.050446,267.025238 373.843048,265.228546 374.972565,263.271515 
	C377.305634,259.229034 381.280945,258.911469 384.367645,260.259949 
	C396.061157,265.368591 408.269226,263.337830 420.293854,263.659637 
	C423.300873,263.740112 425.208679,264.346893 426.342285,267.282440 
	C426.984009,268.944214 428.033539,270.613068 429.324615,271.826233 
	C432.275024,274.598694 432.634216,277.940918 431.663086,281.436493 
	C426.418579,300.313751 427.424438,319.610779 427.354980,338.871887 
	C427.340973,342.761627 425.743286,346.736206 424.418579,350.511200 
	C421.937866,357.580658 418.481110,364.375092 416.706268,371.597443 
	C415.761353,375.442474 417.948792,379.947968 417.909088,384.147675 
	C417.828003,392.733307 417.098755,401.310516 416.817688,409.897125 
	C416.453278,421.031158 416.344513,432.173859 415.935303,443.305847 
	C415.853333,445.535126 415.389923,448.005371 414.298248,449.901520 
	C406.619385,463.239136 410.675446,480.808868 423.384613,489.525848 
	C426.239624,491.483978 427.668427,490.922516 429.255615,488.270264 
	C439.731201,470.765198 447.596313,452.370728 449.102112,431.707367 
	C449.526428,425.884399 451.517731,420.514343 454.639648,415.557709 
	C456.229919,413.032928 456.459412,411.025848 453.394012,408.931671 
	C451.724152,407.790924 450.325623,405.001007 450.286499,402.926941 
	C450.019348,388.766724 449.807709,374.586548 450.333862,360.440918 
	C450.511017,355.678925 453.362091,351.075195 454.134033,346.261658 
	C455.094360,340.273651 455.275513,334.149017 455.597931,328.073029 
	C456.123505,318.168427 455.621979,308.122803 457.110229,298.374268 
	C460.005402,279.409424 475.017059,273.443024 492.994476,277.383179 
	C501.097748,279.159210 507.810181,281.711334 508.507477,291.502960 
	C508.660187,293.647522 510.016327,295.706360 512.003906,297.667023 
	C512.003906,293.025726 511.954041,288.383759 512.018921,283.743378 
	C512.075928,279.664856 513.583862,277.145966 517.278076,274.290741 
	C524.631165,268.607666 531.090576,269.756500 538.437378,273.196198 
	C543.203125,275.427490 548.343689,276.848358 553.164307,278.976776 
	C555.071228,279.818726 556.448181,281.791901 558.283447,282.885803 
	C559.901611,283.850250 561.791504,284.798248 563.613831,284.911896 
	C579.277710,285.888885 594.350586,289.345612 608.318665,296.481445 
	C619.325012,302.104156 628.127014,310.259003 633.191223,321.944397 
	C633.993042,323.794525 635.520081,325.454010 637.038940,326.844269 
	C640.313171,329.841217 643.800232,332.605774 646.963501,335.266327 
	C646.963501,332.816956 646.963684,329.257111 646.963440,325.697296 
	C646.963013,319.864563 647.528931,313.965240 646.853394,308.211761 
	C644.967896,292.153900 649.148560,277.770203 657.484497,264.236481 
	C658.825867,262.058777 659.862671,260.882416 662.721619,260.868713 
	C706.851746,260.657623 742.548157,278.386078 771.120178,311.448395 
	C771.989197,312.454102 772.784485,313.537720 773.742859,314.449799 
	C779.700745,320.120117 781.525208,326.225616 779.496887,334.826813 
	C777.089722,345.034698 779.210510,355.744232 782.748596,365.599579 
	C786.632446,376.417847 791.050415,387.167480 796.524597,397.247009 
	C799.980652,403.610504 801.413513,409.284180 800.019165,416.401459 
	C795.288879,440.545563 790.040527,464.509277 780.074829,487.154907 
	C770.877991,508.053650 758.933167,526.914001 739.878174,540.364380 
	C736.917175,542.454468 733.755920,544.260925 730.375427,546.406616 
M722.296875,339.221191 
	C716.571777,333.822113 712.669495,326.348175 704.531799,323.292694 
	C704.782288,331.557526 705.674133,339.402344 706.709167,347.228271 
	C707.308350,351.759308 709.869019,356.843964 708.575439,360.676544 
	C701.665466,381.149750 703.547485,401.024902 710.812561,420.781006 
	C712.787842,426.152557 713.972534,431.082489 709.659851,435.984070 
	C708.316406,437.511017 707.846436,439.834137 707.072388,441.829926 
	C702.094971,454.663910 703.909973,468.020416 704.111389,481.246429 
	C704.152100,483.915833 705.731384,484.266113 707.840637,483.255005 
	C711.270630,481.610748 714.579041,479.663361 718.115723,478.304779 
	C721.870605,476.862396 723.962463,474.284576 725.118530,470.600311 
	C727.390259,463.360657 729.797852,456.163605 732.063416,448.922089 
	C737.026367,433.058716 740.347961,416.799744 740.895874,400.227448 
	C741.624146,378.198242 736.410583,357.623169 722.296875,339.221191 
M575.364014,331.985748 
	C572.098328,331.237030 568.832642,330.488342 564.010376,329.382751 
	C564.010376,342.495575 563.641846,354.563721 564.169006,366.592621 
	C564.424805,372.430450 564.579346,378.693756 570.468201,382.872040 
	C576.092651,386.862732 581.220459,387.249603 584.963318,381.533081 
	C589.526611,374.563416 593.772034,367.086212 596.409119,359.241638 
	C598.893555,351.850830 597.040283,344.168152 590.028442,339.329193 
	C585.762390,336.385071 580.819397,334.421753 575.364014,331.985748 
z"/>
<path fill="#FCFCFC" opacity="1.000000" stroke="none" 
	d="
M285.982758,262.624878 
	C293.116028,270.095978 299.683655,277.645660 307.133057,284.191895 
	C310.566315,287.208893 312.384369,290.324951 312.866058,294.449768 
	C314.517548,308.591461 318.972534,321.831726 325.908539,334.175262 
	C332.299011,345.547913 328.634064,356.435913 325.495544,367.640381 
	C322.866241,377.026855 320.944763,386.286407 327.231323,395.671295 
	C335.358124,407.803375 333.892914,420.562073 327.156952,433.101776 
	C325.418701,436.337738 323.902252,439.968842 323.442383,443.566528 
	C321.700806,457.191833 321.270020,471.030945 318.801178,484.506531 
	C314.823181,506.219482 307.751221,526.755676 289.793579,541.534607 
	C280.350494,549.306152 269.238312,552.981201 257.369415,555.064941 
	C253.025650,555.827515 248.919632,557.882080 244.591248,558.823669 
	C242.724899,559.229614 239.826202,559.041565 238.664520,557.868103 
	C230.506226,549.626953 222.548721,541.175049 214.804535,532.541504 
	C211.293228,528.626953 208.430939,524.132324 205.235474,519.930359 
	C204.637741,519.144348 203.973953,518.094055 203.140579,517.850647 
	C194.969421,515.463806 193.583237,508.376129 191.033356,501.657593 
	C188.476593,494.920929 186.208832,488.363312 187.145233,481.064453 
	C187.228836,480.412872 187.391647,479.448364 187.046906,479.112732 
	C180.481384,472.720123 183.693390,464.371826 183.306351,457.112701 
	C182.439621,440.856964 183.174606,424.514740 183.297562,408.208038 
	C183.328415,404.115540 182.776443,399.980133 186.001328,396.429535 
	C186.989075,395.341949 186.600784,392.947845 186.727112,391.143982 
	C187.500763,380.096191 187.479141,368.929504 189.148315,358.020599 
	C192.839172,333.899109 202.900375,312.277527 217.771469,293.041626 
	C224.047928,284.922943 231.189514,277.438171 238.333679,270.047913 
	C240.317551,267.995667 243.701614,267.275696 246.480789,266.028076 
	C247.206131,265.702454 248.284470,265.950378 248.841400,265.495239 
	C254.731781,260.681488 261.477539,261.334503 268.405823,261.887604 
	C272.487244,262.213379 276.655609,261.272858 280.790619,261.190948 
	C282.445038,261.158173 284.114838,261.902588 285.982758,262.624878 
M272.011017,360.733856 
	C271.699799,358.264160 270.827728,355.710205 271.183624,353.340698 
	C272.207184,346.526489 268.405975,343.593597 262.945587,341.110962 
	C255.068283,337.529419 254.945328,337.335632 251.679581,345.067200 
	C240.497574,371.540375 234.262512,398.922913 236.976273,427.847473 
	C238.070572,439.511017 239.892624,451.114929 240.707870,462.793152 
	C241.345215,471.922607 245.998322,477.987793 253.121689,482.865875 
	C257.544952,485.894867 269.750641,482.493073 270.856537,477.505585 
	C271.961304,472.523285 272.842896,467.381012 272.904938,462.297668 
	C273.138580,443.155518 273.041321,424.008575 272.940399,404.864075 
	C272.928528,402.614105 272.215790,400.346344 271.669006,398.125977 
	C270.937927,395.157410 269.224548,392.181335 269.384705,389.288818 
	C269.895294,380.065674 271.077393,370.879639 272.011017,360.733856 
z"/>
<path fill="#FCFCFC" opacity="1.000000" stroke="none" 
	d="
M37.997017,404.465515 
	C37.973915,403.186493 38.285519,401.884705 37.876694,401.593140 
	C32.851032,398.009338 35.165413,393.415619 36.070415,389.078552 
	C39.182018,374.166565 40.031570,359.199219 38.181709,344.020691 
	C37.500866,338.434235 37.953819,332.699615 38.056255,327.035583 
	C38.078362,325.813232 38.676819,324.532532 39.249313,323.399719 
	C44.167725,313.667328 49.812912,304.236145 53.909481,294.172974 
	C58.012375,284.094238 65.306793,277.620941 74.432259,273.153046 
	C81.457268,269.713531 89.222855,267.798676 96.621689,265.103088 
	C98.804947,264.307648 100.860741,263.162415 102.999931,262.165833 
	C113.351517,263.083435 124.155495,263.951935 134.931488,265.086365 
	C136.675705,265.269958 138.743256,266.232117 139.899918,267.518890 
	C147.109283,275.539001 154.163422,283.701782 161.140289,291.926422 
	C164.573563,295.973694 168.003433,300.078918 170.873581,304.520599 
	C171.959122,306.200470 171.676392,308.905060 171.639816,311.136383 
	C171.585510,314.447479 171.088531,317.750671 171.015472,321.062439 
	C170.994476,322.014557 171.627090,323.701263 172.226852,323.832550 
	C176.866882,324.848511 176.282104,328.349701 176.290405,331.656219 
	C176.326004,345.804901 172.970230,358.527130 161.319092,367.855591 
	C153.239899,374.324097 143.729172,377.001923 133.710602,377.761810 
	C128.048981,378.191223 121.697983,367.598785 123.222717,361.394836 
	C127.990250,341.996368 118.443764,328.329803 100.304604,323.364685 
	C97.194946,322.513519 95.408203,323.569000 94.385475,326.796631 
	C93.063026,330.970123 92.876915,334.789825 93.754639,339.267853 
	C95.982712,350.635254 93.797935,361.661835 88.648956,372.061890 
	C88.070290,373.230713 87.191872,374.398193 87.074959,375.625580 
	C85.991951,386.995209 84.224983,398.380707 84.264679,409.756012 
	C84.315834,424.413635 86.346153,439.098297 93.952415,452.000702 
	C97.364998,457.789429 94.915543,462.668060 93.752457,467.627563 
	C90.697258,480.655212 94.557739,491.008850 105.109871,498.518890 
	C117.744865,507.511322 115.372482,506.023468 122.503944,496.163269 
	C127.426933,489.356537 132.040695,482.177521 132.026611,473.176270 
	C132.015381,465.992218 129.451279,461.774078 122.616455,459.041748 
	C119.282074,457.708771 115.735397,456.796661 112.206215,456.082397 
	C102.766335,454.171875 97.218964,448.148071 96.564354,438.878021 
	C96.091354,432.179932 95.580383,425.483002 94.955841,418.797760 
	C94.701790,416.078339 95.528748,414.801788 98.322891,413.860809 
	C115.623642,408.034393 133.311264,406.777374 151.331039,408.767853 
	C154.119141,409.075836 156.895187,409.909912 159.666626,409.865417 
	C165.575729,409.770477 168.778015,413.181854 170.793213,418.013733 
	C173.451523,424.387634 176.493301,430.535736 176.584549,437.867767 
	C176.655197,443.545471 179.113068,449.171692 179.388306,454.874939 
	C179.647400,460.243134 178.592896,465.703461 177.846100,471.085785 
	C175.973557,484.581451 172.103394,497.515533 165.741364,509.568634 
	C160.958115,518.630615 155.653458,527.417969 150.558472,536.314697 
	C148.654846,539.638672 146.292328,542.286072 141.594147,541.348755 
	C140.250732,545.189758 138.963745,548.869385 137.955566,551.751953 
	C127.277855,553.535156 116.974464,556.222595 106.565552,556.725281 
	C95.917221,557.239502 85.927055,553.064819 76.597214,547.882751 
	C73.855843,546.360168 71.254425,544.579468 68.627319,542.858398 
	C62.847073,539.071594 59.220181,534.816162 58.143654,526.940308 
	C56.744942,516.707336 51.896786,506.971588 48.848282,496.926239 
	C47.555096,492.664948 47.062057,488.160858 46.063747,483.040833 
	C41.835285,482.743286 42.391415,479.058441 42.732647,474.688599 
	C43.916332,459.529907 41.704311,444.636658 39.095898,429.703674 
	C37.684311,421.622437 38.297295,413.187531 37.997017,404.465515 
z"/>
<path fill="#030303" opacity="1.000000" stroke="none" 
	d="
M722.553833,339.469635 
	C736.410583,357.623169 741.624146,378.198242 740.895874,400.227448 
	C740.347961,416.799744 737.026367,433.058716 732.063416,448.922089 
	C729.797852,456.163605 727.390259,463.360657 725.118530,470.600311 
	C723.962463,474.284576 721.870605,476.862396 718.115723,478.304779 
	C714.579041,479.663361 711.270630,481.610748 707.840637,483.255005 
	C705.731384,484.266113 704.152100,483.915833 704.111389,481.246429 
	C703.909973,468.020416 702.094971,454.663910 707.072388,441.829926 
	C707.846436,439.834137 708.316406,437.511017 709.659851,435.984070 
	C713.972534,431.082489 712.787842,426.152557 710.812561,420.781006 
	C703.547485,401.024902 701.665466,381.149750 708.575439,360.676544 
	C709.869019,356.843964 707.308350,351.759308 706.709167,347.228271 
	C705.674133,339.402344 704.782288,331.557526 704.531799,323.292694 
	C712.669495,326.348175 716.571777,333.822113 722.553833,339.469635 
z"/>
<path fill="#010101" opacity="1.000000" stroke="none" 
	d="
M575.772217,332.001801 
	C580.819397,334.421753 585.762390,336.385071 590.028442,339.329193 
	C597.040283,344.168152 598.893555,351.850830 596.409119,359.241638 
	C593.772034,367.086212 589.526611,374.563416 584.963318,381.533081 
	C581.220459,387.249603 576.092651,386.862732 570.468201,382.872040 
	C564.579346,378.693756 564.424805,372.430450 564.169006,366.592621 
	C563.641846,354.563721 564.010376,342.495575 564.010376,329.382751 
	C568.832642,330.488342 572.098328,331.237030 575.772217,332.001801 
z"/>
<path fill="#020202" opacity="1.000000" stroke="none" 
	d="
M272.005554,361.206573 
	C271.077393,370.879639 269.895294,380.065674 269.384705,389.288818 
	C269.224548,392.181335 270.937927,395.157410 271.669006,398.125977 
	C272.215790,400.346344 272.928528,402.614105 272.940399,404.864075 
	C273.041321,424.008575 273.138580,443.155518 272.904938,462.297668 
	C272.842896,467.381012 271.961304,472.523285 270.856537,477.505585 
	C269.750641,482.493073 257.544952,485.894867 253.121689,482.865875 
	C245.998322,477.987793 241.345215,471.922607 240.707870,462.793152 
	C239.892624,451.114929 238.070572,439.511017 236.976273,427.847473 
	C234.262512,398.922913 240.497574,371.540375 251.679581,345.067200 
	C254.945328,337.335632 255.068283,337.529419 262.945587,341.110962 
	C268.405975,343.593597 272.207184,346.526489 271.183624,353.340698 
	C270.827728,355.710205 271.699799,358.264160 272.005554,361.206573 
z"/>
</svg>